<svg width="40" height="40" viewBox="0 0 40 40" fill="none" xmlns="http://www.w3.org/2000/svg">
<circle cx="20" cy="20" r="20" fill="#FFEFF2"/>
<path d="M30.8602 15.1428C30.691 14.9953 30.4818 14.9014 30.2592 14.873C30.0365 14.8446 29.8104 14.8831 29.6096 14.9834L24.9024 17.3272L20.9724 10.7994C20.8714 10.6319 20.7288 10.4933 20.5585 10.3971C20.3881 10.3009 20.1959 10.2504 20.0002 10.2504C19.8046 10.2504 19.6123 10.3009 19.442 10.3971C19.2717 10.4933 19.1291 10.6319 19.0281 10.7994L15.0981 17.33L10.3927 14.9863C10.1924 14.8868 9.96721 14.8487 9.74533 14.8767C9.52345 14.9048 9.3148 14.9977 9.14556 15.144C8.97632 15.2902 8.85403 15.4831 8.79404 15.6985C8.73406 15.914 8.73904 16.1424 8.80837 16.355L12.2771 26.9825C12.312 27.0893 12.3704 27.1868 12.448 27.268C12.5257 27.3492 12.6205 27.4119 12.7256 27.4515C12.8308 27.4911 12.9434 27.5065 13.0553 27.4968C13.1672 27.487 13.2755 27.4522 13.3721 27.395C13.3956 27.3809 15.7927 26 20.0002 26C24.2077 26 26.6049 27.3809 26.6265 27.3941C26.7232 27.4518 26.8316 27.4871 26.9438 27.4972C27.056 27.5073 27.169 27.492 27.2745 27.4525C27.3799 27.413 27.4751 27.3502 27.553 27.2688C27.6309 27.1875 27.6894 27.0896 27.7243 26.9825L31.1931 16.3578C31.2644 16.1451 31.2708 15.916 31.2115 15.6997C31.1523 15.4833 31.03 15.2895 30.8602 15.1428ZM24.4852 22.7C24.4546 22.8735 24.3639 23.0307 24.229 23.144C24.0941 23.2573 23.9236 23.3195 23.7474 23.3197C23.7034 23.3196 23.6595 23.3159 23.6162 23.3084C21.2206 22.8972 18.7724 22.8972 16.3768 23.3084C16.2798 23.3256 16.1804 23.3234 16.0842 23.3021C15.988 23.2808 15.897 23.2407 15.8163 23.1842C15.6533 23.0701 15.5423 22.8959 15.5077 22.7C15.4732 22.5041 15.5179 22.3024 15.632 22.1395C15.7461 21.9765 15.9202 21.8655 16.1162 21.8309C18.6842 21.3897 21.3087 21.3897 23.8768 21.8309C23.9742 21.8476 24.0673 21.8833 24.1508 21.9361C24.2343 21.9888 24.3066 22.0575 24.3635 22.1383C24.4203 22.219 24.4607 22.3102 24.4823 22.4066C24.5038 22.503 24.5061 22.6027 24.489 22.7H24.4852Z" fill="#E03636"/>
</svg>
